# xmcd
#
# Track frame offsets: 
#        150
#        14542
#        34828
#        52061
#        70455
#        89636
#        108067
#        126435
#        141056
#        159675
#        189556
#        207864
#        222601
#        240716
#
# Disc length: 3414 seconds
#
# Revision: 1
# Processed by: cddbd v1.5.2PL0 Copyright (c) Steve Scherf et al.
# Submitted via: ExactAudioCopyFreeDBPlugin 1.0
#
DISCID=d90d540e
DTITLE=Paul Wall - Heart Of A Champion
DYEAR=2010
DGENRE=Rap
TTITLE0=Take Notes
TTITLE1=Showin' Skillz (feat. Lil Keke)
TTITLE2=I'm On Patron
TTITLE3=Round Here (feat. Chamillionaire)
TTITLE4=Im'ma Get It (feat. Bun B and Kid Sister)
TTITLE5=Stay Iced Up (feat. C.Stone and Johnny Dang)
TTITLE6=Pocket Fulla Presidents (feat. Andre Nickatina and Mitchy Slick)
TTITLE7=Ain't A Thang (feat. Jim Jones)
TTITLE8=My City (feat. Dallas Blocker and Yo Gotti)
TTITLE9=Smoke Everyday (feat. Devin The Dude and Z-Ro)
TTITLE10=Live It (feat. Raekwon, Yelawolf and Jay Electronica)
TTITLE11=Expensive Taste - Not My Friend (feat. Slim Thug)
TTITLE12=Still On
TTITLE13=Expensive Taste - Heart Of A Hustler
EXTD=
EXTT0=
EXTT1=
EXTT2=
EXTT3=
EXTT4=
EXTT5=
EXTT6=
EXTT7=
EXTT8=
EXTT9=
EXTT10=
EXTT11=
EXTT12=
EXTT13=
PLAYORDER=
